<?xml version="1.0" encoding="utf-8"?>
<!-- Generator: Adobe Illustrator 22.1.0, SVG Export Plug-In . SVG Version: 6.00 Build 0)  -->
<svg version="1.1" id="Слой_1" xmlns="http://www.w3.org/2000/svg" xmlns:xlink="http://www.w3.org/1999/xlink" x="0px" y="0px"
	 viewBox="0 0 110 67" style="enable-background:new 0 0 110 67;" xml:space="preserve">
<style type="text/css">
	.st0{fill:#F1F1F1;}
</style>
<path class="st0" d="M97.3,58.4h-2v-2.2c0-12.1,0-24.1,0-36.2c0-1.6-0.1-3.1-0.4-4.8c-1-6.7-6.9-11.6-13.7-11.3
	C57.3,4.1,33.3,4,9.4,4c-3,0-3.8,0.8-3.8,3.8v31.5c0,3.4,0,3.8,2.7,4.9c0.5,0.2,0.8,0.7,0.9,1.3v7.7c0,0.8,0.6,1.4,1.4,1.4l0,0h2.3
	c0.8,0,1.4-0.6,1.4-1.4l0,0c0-2.4-0.1-4.9,0.1-7.3c0.1-0.8,0.6-1.4,1.2-1.8c4-1.5,5.5-4.7,5.7-8.6c0.3-6.1,2.6-8.4,8.7-8.4h29.9
	c4.4,0,6,1.2,6.1,5.6c0.1,4.9-0.2,9.7-0.7,14.6c-0.3,3.6-1.1,7.3-1.8,11.1H3c-1.5-0.1-2.7,1.1-2.7,2.6v0.4c0,1.5,1.2,2.7,2.7,2.7
	h9.3v0.2c0,1.4,1.2,2.6,2.6,2.6h9.5c1.4,0,2.6-1.2,2.6-2.6v-0.2h46.3v0.2c0,1.4,1.2,2.6,2.6,2.6h9.5c1.4,0,2.6-1.2,2.6-2.6v-0.2h9.3
	c1.5,0,2.7-1.2,2.7-2.7V61C100.1,59.6,98.8,58.4,97.3,58.4z M89.8,57.3L89.8,57.3c0,0.4-0.2,0.9-0.6,1.1c-0.2,0.2-0.5,0.2-0.8,0.2
	H71.2c-0.3,0-0.5-0.1-0.8-0.2c-0.4-0.3-0.7-0.8-0.6-1.3c0.6-4.6,1.3-9,1.7-13.5c0.4-3.9,0.5-7.7,0.2-11.6
	c-0.4-7.1-4.5-10.5-11.4-10.5H29.4c-8.4,0-13.4,4.9-13.7,13.2c-0.1,2.5-0.8,3.8-2.8,4.1c-0.7,0.1-1.4-0.4-1.5-1.2c0-0.1,0-0.1,0-0.2
	V10.9c0-0.8,0.6-1.4,1.4-1.4h68.3c4.6,0,7.3,2.1,8.2,6.5c0.3,1,0.4,2.1,0.4,3.2C89.8,32,89.8,44.6,89.8,57.3z"/>
<path class="st0" d="M99.8,14h0.4c1.3,0,2.3,1,2.3,2.3v15c0,1.3-1,2.3-2.3,2.3h-0.4c-1.3,0-2.3-1-2.3-2.3v-15
	C97.6,15.1,98.7,14,99.8,14z"/>
<path class="st0" d="M89.2,58.4c-0.2,0.2-0.5,0.2-0.8,0.2H71.2c-0.3,0-0.5-0.1-0.8-0.2H89.2z"/>
<path class="st0" d="M109.8,2.3v43.1c0,1.3-1,2.3-2.3,2.3H107c-1.3,0-2.3-1-2.3-2.3l0,0V2.3c0-1.3,1-2.3,2.3-2.3l0,0h0.4
	C108.8,0,109.8,1,109.8,2.3z"/>
</svg>
