<svg version="1.1" class="st0" xmlns="http://www.w3.org/2000/svg" xmlns:xlink="http://www.w3.org/1999/xlink" x="0px" y="0px"
	 viewBox="0 0 23.9 58" style="enable-background:new 0 0 23.9 58;" xml:space="preserve" width="25" height="70">
<path d="M12,36C6.5,36,2,31.5,2,26V10C2,4.5,6.5,0,12,0s10,4.5,10,10v16C22,31.5,17.6,36,12,36z M12,2c-4.4,0-8,3.6-8,8v16
	c0,4.4,3.6,8,8,8s8-3.6,8-8V10C20,5.6,16.5,2,12,2z"/>
<rect x="10.9" y="4.5" width="2" height="7"/>
<path d="M23.6,46.3L13.4,56.6L12,58l-1.4-1.4L0.3,46.3c-0.4-0.4-0.4-1,0-1.4c0.2-0.2,0.5-0.3,0.7-0.3c0.3,0,0.5,0.1,0.7,0.3L12,55.2
	l10.3-10.3c0.2-0.2,0.5-0.3,0.7-0.3s0.5,0.1,0.7,0.3C24,45.3,24,45.9,23.6,46.3z"/>
</svg>
