<?xml version="1.0" encoding="utf-8"?>
<!-- Generator: Adobe Illustrator 22.1.0, SVG Export Plug-In . SVG Version: 6.00 Build 0)  -->
<svg version="1.1" id="Слой_1" xmlns="http://www.w3.org/2000/svg" xmlns:xlink="http://www.w3.org/1999/xlink" x="0px" y="0px"
	 viewBox="0 0 14 24" style="enable-background:new 0 0 14 24;" xml:space="preserve">
<style type="text/css">
	.st0{fill:#F1F1F1;}
</style>
<path class="st0" d="M14,2c0-1.1-0.9-2-2-2H2C0.9,0,0,0.9,0,2v20c0,1.1,0.9,2,2,2h10c1.1,0,2-0.9,2-2V2z M5.5,2h3C8.8,2,9,2.2,9,2.5
	S8.8,3,8.5,3h-3C5.2,3,5,2.8,5,2.5S5.2,2,5.5,2z M7,22c-0.6,0-1-0.4-1-1s0.4-1,1-1s1,0.4,1,1S7.6,22,7,22z M12,19H2V5h10V19z"/>
</svg>
