<svg class="st0 mb-3" viewBox="0 0 100 100" width="100" heigh="100">
    <path d="M97,40l-7-1.2c-0.9-3.2-2.2-6.3-3.8-9.4l4.1-5.8c1-1.4,0.8-3.4-0.4-4.7l-9-9c-1.3-1.3-3.2-1.4-4.7-0.4l-5.8,4.2
c-2.9-1.6-6.1-2.9-9.3-3.8l-1.2-7c-0.3-1.7-1.8-3-3.6-3H43.7c-1.8,0-3.3,1.3-3.6,3l-1.2,7c-3.2,0.9-6.3,2.2-9.4,3.8l-5.8-4.1
c-1.4-1-3.4-0.8-4.7,0.4l-9,9c-1.2,1.2-1.4,3.2-0.4,4.7l4.1,5.8c-1.6,2.9-2.9,6.1-3.8,9.4l-7,1.2c-1.7,0.3-3,1.8-3,3.6v12.6
c0,1.8,1.3,3.3,3,3.6l7,1.2c0.9,3.2,2.2,6.3,3.8,9.4l-4.1,5.8c-1,1.4-0.8,3.4,0.4,4.7l9,9c1.2,1.2,3.2,1.4,4.7,0.4l5.8-4.1
c2.9,1.6,6.1,2.9,9.4,3.8l1.2,7c0.3,1.7,1.8,3,3.6,3h12.6c1.8,0,3.3-1.3,3.6-3l1.2-7c3.2-0.9,6.3-2.2,9.4-3.8l5.8,4.1
c1.4,1,3.4,0.8,4.7-0.4l9-9c1.3-1.3,1.4-3.2,0.4-4.7l-4.2-5.9c1.6-2.9,2.9-6.1,3.8-9.4l7.1-1.2c1.8-0.3,3-1.8,3-3.6V43.6
C100,41.8,98.7,40.3,97,40z M92.7,53.1l-6.4,1.1c-1.5,0.2-2.6,1.4-3,2.8c-0.9,4.1-2.5,8.1-4.7,11.5c-0.8,1.2-0.8,2.9,0.1,4.1
l3.8,5.4l-4.6,4.6l-5.3-3.7c-1.2-0.8-2.8-0.9-4-0.1c-3.7,2.3-7.6,3.9-11.5,4.7c-1.5,0.3-2.6,1.5-2.8,3l-1.1,6.3h-6.5l-1.1-6.3
c-0.2-1.5-1.4-2.6-2.8-2.9c-4.1-0.9-8.1-2.5-11.5-4.7c-1.2-0.8-2.8-0.8-4.1,0.1l-5.2,3.7l-4.6-4.6l3.7-5.3c0.8-1.2,0.9-2.8,0.1-4
c-2.3-3.7-3.9-7.6-4.7-11.5c-0.3-1.5-1.5-2.6-2.9-2.8l-6.3-1.1v-6.5l6.3-1.1c1.5-0.2,2.6-1.4,2.9-2.8c0.9-4.1,2.5-8.1,4.7-11.5
c0.8-1.2,0.8-2.8-0.1-4.1l-3.7-5.2l4.6-4.6l5.2,3.7c1.2,0.8,2.8,0.9,4,0.1c3.7-2.3,7.6-3.9,11.5-4.7c1.5-0.3,2.6-1.5,2.8-2.9
l1.1-6.3h6.5l1.1,6.3c0.2,1.5,1.4,2.6,2.8,2.9c4.1,0.9,8.1,2.5,11.5,4.7c1.3,0.8,2.9,0.8,4.1-0.1l5.2-3.8l4.6,4.6l-3.7,5.3
c-0.8,1.2-0.9,2.8-0.1,4c2.3,3.7,3.9,7.6,4.7,11.5c0.3,1.5,1.5,2.6,3,2.8l6.3,1.1L92.7,53.1L92.7,53.1z"/>
    <path d="M50,29.9c-11,0-20,9-20,20s9,20,20,20c11,0,20-9,20-20S61,29.9,50,29.9z M50,62.6c-7,0-12.7-5.7-12.7-12.7S43,37.2,50,37.2s12.7,5.7,12.7,12.7C62.7,56.9,57,62.6,50,62.6z"/>
</svg>
