<svg class="st0 mb-3" viewBox="0 0 100 100" width="100" heigh="100">
    <path d="M72.3,11.3c-5.9-6.2-13.8-9.5-22.2-9.5c-8.4,0-16.3,3.4-22.2,9.5c-12.2,12.7-12.2,33.3,0,45.9l19.8,20.7c0.6,0.6,1.5,1,2.4,1c0,0,0,0,0,0c0.9,0,1.7-0.4,2.4-1l19.9-20.7C84.4,44.6,84.4,24,72.3,11.3zM67.5,52.7L50,70.9L32.6,52.7c-9.8-10.1-9.8-26.7,0-36.8c4.7-4.9,10.9-7.5,17.5-7.5c6.6,0,12.8,2.7,17.5,7.5C77.3,26,77.3,42.6,67.5,52.7z"/>
    <path d="M100,94.6l-3.3-39.8c-0.1-1.7-1.6-3-3.3-3H69.7v6.6h20.7l2.7,33.3H6.8l2.7-33.3h20.7v-6.6H6.6c-1.7,0-3.1,1.3-3.3,3L0,94.6c-0.1,0.9,0.2,1.8,0.9,2.5c0.6,0.7,1.5,1.1,2.4,1.1h93.4c0.9,0,1.8-0.4,2.4-1.1C99.8,96.5,100.1,95.6,100,94.6z"/>
    <path d="M50,17.6c-7,0-12.7,5.7-12.7,12.7c0,7,5.7,12.7,12.7,12.7c7,0,12.7-5.7,12.7-12.7C62.7,23.3,57,17.6,50,17.6z M50,36.4c-3.4,0-6.1-2.7-6.1-6.1c0-3.4,2.7-6.1,6.1-6.1s6.1,2.7,6.1,6.1C56.1,33.6,53.4,36.4,50,36.4z"/>
</svg>
