<svg class="st0" width="50" heigh="50" viewBox="0 0 50 50">
    <path d="M49.5,38L38.1,49.5c-0.3,0.3-0.7,0.5-1.1,0.5c-0.4,0-0.8-0.2-1.1-0.5L24.4,38c0,0-0.1-0.1-0.1-0.2c-0.6-0.7-0.5-1.7,0.1-2.3c0.3-0.3,0.7-0.4,1.1-0.4c0.5,0,0.9,0.2,1.2,0.5l8.8,8.8V1.6c0-0.9,0.7-1.6,1.6-1.6c0.9,0,1.6,0.7,1.6,1.6v42.9l8.7-8.8c0.3-0.3,0.7-0.5,1.1-0.5c0.4,0,0.8,0.2,1.1,0.5C50.2,36.4,50.2,37.4,49.5,38z"/>
  <path d="M32.8,1.6c0,0.9-0.7,1.6-1.6,1.6H1.6C0.7,3.2,0,2.5,0,1.6C0,0.7,0.7,0,1.6,0h29.6C32.1,0,32.8,0.7,32.8,1.6z"/>
  <path d="M32.8,13.2c0,0.9-0.7,1.6-1.6,1.6H1.6c-0.9,0-1.6-0.7-1.6-1.6c0-0.9,0.7-1.6,1.6-1.6h29.6C32.1,11.6,32.8,12.3,32.8,13.2z"/>
    <<path d="M32.8,24.8c0,0.9-0.7,1.6-1.6,1.6H1.6c-0.9,0-1.6-0.7-1.6-1.6c0-0.9,0.7-1.6,1.6-1.6h29.6C32.1,23.2,32.8,24,32.8,24.8z"/>
    <path d="M22.5,36.5c0,0.9-0.7,1.6-1.6,1.6H1.6c-0.9,0-1.6-0.7-1.6-1.6c0-0.9,0.7-1.6,1.6-1.6h19.3C21.8,34.9,22.5,35.6,22.5,36.5z"/>
    <path d="M22.5,48.1c0,0.9-0.7,1.6-1.6,1.6H1.6C0.7,49.7,0,49,0,48.1c0-0.9,0.7-1.6,1.6-1.6h19.3C21.8,46.5,22.5,47.2,22.5,48.1z"/>
</svg>
