<svg class="st0 mb-3" viewBox="0 0 100 100" width="100" heigh="100">
    <path d="M50,0C31.6,0,16.6,15,16.6,33.4c0,18.4,15,33.4,33.4,33.4c18.4,0,33.4-15,33.4-33.4C83.4,15,68.4,0,50,0z M50,60.2c-14.8,0-26.8-12-26.8-26.8S35.2,6.6,50,6.6c14.8,0,26.8,12,26.8,26.8S64.8,60.2,50,60.2z"/>
<path d="M73.3,95.4l-1.6-39l-6.6,0.3l1.4,34L53,79c-1.7-1.6-4.3-1.6-5.9,0L33.5,90.7l1.4-34l-6.6-0.3l-1.6,39c0,0,0,0.1,0,0.1c0,1.7,1,3.3,2.6,4c1.6,0.7,3.4,0.5,4.7-0.7l16-13.8l16,13.8c0.8,0.7,1.8,1.1,2.9,1.1c0.6,0,1.2-0.1,1.8-0.4c1.6-0.7,2.6-2.3,2.6-4C73.3,95.5,73.3,95.5,73.3,95.4z"/>
<path d="M64.6,23.4c-1.3-1.3-3.4-1.3-4.6,0L45.6,37.7L39,31c-1.3-1.3-3.4-1.3-4.6,0c-1.3,1.3-1.3,3.4,0,4.6l9,9.1c0.6,0.6,1.5,1,2.3,1c0,0,0,0,0,0c0.9,0,1.7-0.3,2.3-1L64.6,28C65.9,26.8,65.9,24.7,64.6,23.4z"/>
</svg>
