<svg class="st0" width="20" height="20"  viewBox="0 0 20 20">
    <path d="M11,15.8c0.5,0,0.7-0.3,0.7-0.8c0-1.6,0.6-2.5,1.7-1.3c1.2,1.2,1.5,2.1,3,2.1h2.7c0.7,0,0.9-0.2,0.9-0.6
       c0-0.7-1.2-2-2.2-2.9c-1.4-1.3-1.5-1.3-0.3-2.9C19.1,7.5,21,5,19.3,5H16c-0.6,0-0.7,0.4-0.9,0.9c-0.8,2-2.4,4.5-3,4.1
       c-0.6-0.4-0.3-2-0.3-4.4c0-0.6,0-1.1-1-1.3c-0.5-0.1-1-0.2-1.5-0.2C7.4,4.2,6.1,5,6.8,5.1C8.1,5.3,8,8.2,7.7,9.4
       c-0.5,2.1-2.5-1.7-3.4-3.6C4.1,5.4,4.1,5,3.4,5H0.7C0.2,5,0,5.1,0,5.4c0,0.5,2.5,5.6,4.8,8.1C7.1,16.1,9.4,15.8,11,15.8z"/>
</svg>
